<?xml version="1.0" encoding="UTF-8" standalone="no"?>
<!-- Created with Inkscape (http://www.inkscape.org/) -->

<svg
   width="210mm"
   height="297mm"
   viewBox="0 0 210 297"
   version="1.1"
   id="svg5"
   inkscape:version="1.1 (c68e22c387, 2021-05-23)"
   sodipodi:docname="dibujo.svg"
   inkscape:export-filename="C:\Users\sergi\Desktop\dibujo.png"
   inkscape:export-xdpi="96"
   inkscape:export-ydpi="96"
   xmlns:inkscape="http://www.inkscape.org/namespaces/inkscape"
   xmlns:sodipodi="http://sodipodi.sourceforge.net/DTD/sodipodi-0.dtd"
   xmlns="http://www.w3.org/2000/svg"
   xmlns:svg="http://www.w3.org/2000/svg">
  <sodipodi:namedview
     id="namedview7"
     pagecolor="#ffffff"
     bordercolor="#999999"
     borderopacity="1"
     inkscape:pageshadow="0"
     inkscape:pageopacity="0"
     inkscape:pagecheckerboard="0"
     inkscape:document-units="mm"
     showgrid="false"
     inkscape:zoom="0.8271379"
     inkscape:cx="310.70998"
     inkscape:cy="586.96379"
     inkscape:window-width="1920"
     inkscape:window-height="1057"
     inkscape:window-x="1912"
     inkscape:window-y="-8"
     inkscape:window-maximized="1"
     inkscape:current-layer="layer2" />
  <defs
     id="defs2" />
  <g
     inkscape:groupmode="layer"
     id="layer2"
     inkscape:label="fondo"
     style="display:inline">
    <rect
       style="fill:#000000;fill-opacity:1;stroke:none;stroke-width:0.264583;stroke-opacity:1"
       id="rect9309"
       width="200.18488"
       height="286.99402"
       x="5.6126599"
       y="5.6126599" />
  </g>
  <g
     inkscape:groupmode="layer"
     id="layer3"
     inkscape:label="debajoTriangulo">
    <circle
       id="path12260"
       style="fill:#ff0000;stroke:#000000;stroke-width:0.264583"
       cx="48.404232"
       cy="123.95103"
       r="0.1938062" />
    <circle
       id="path13292"
       style="fill:#ff0000;stroke:#000000;stroke-width:0.264583"
       cx="110.67783"
       cy="162.33815"
       r="0.13704169" />
    <path
       style="fill:#ff0000;fill-opacity:1;stroke:#ff0000;stroke-width:2.402;stroke-linejoin:round;stroke-miterlimit:4;stroke-dasharray:none;stroke-opacity:1"
       id="path13594"
       d="m 112.92363,163.80611 c -1.13679,1.65208 -2.68102,3.03363 -4.28263,4.2245 -0.64913,0.48266 -1.33104,0.9196 -1.99657,1.37939 0.0777,-0.0527 0.31885,-0.19574 0.23296,-0.15799 -0.97789,0.42981 -1.91937,0.94335 -2.91281,1.33586 -2.20967,0.87307 -4.559451,1.54122 -6.902926,1.93348 -3.383836,0.56639 -4.536633,0.45163 -7.978092,0.50328 -1.407004,-0.11859 -2.821991,-0.16482 -4.221012,-0.35578 -5.938337,-0.81054 -11.762796,-2.83209 -16.904954,-5.91614 -1.211458,-0.72659 -2.336774,-1.588 -3.50516,-2.38199 -2.135577,-1.87744 -3.525462,-2.83429 -5.101881,-5.19487 -1.215658,-1.82037 -1.844329,-3.58216 -2.09413,-5.74978 -0.293809,-2.54945 0.07723,-3.89228 0.448112,-6.41751 0.325157,-1.10542 0.583451,-2.23275 0.975474,-3.31627 1.691229,-4.6744 4.594907,-8.96196 7.733717,-12.77823 0.891691,-1.08415 1.8497,-2.11201 2.774548,-3.16802 4.172889,-4.42642 8.966631,-8.1888 14.053328,-11.50397 2.883281,-1.87914 5.299517,-3.26144 8.268676,-5.01564 5.174919,-2.9371 10.37829,-5.82621 15.672,-8.54484 3.47551,-1.78487 4.58803,-2.30042 8.02008,-3.962925 2.57701,-1.234281 5.16538,-2.444284 7.7607,-3.639447 0,0 2.60081,-2.071346 2.60081,-2.071346 v 0 c -2.75023,1.336162 -5.49535,2.682727 -8.24466,4.020807 -3.35248,1.648962 -4.80937,2.34706 -8.18898,4.088671 -6.75618,3.48165 -13.38658,7.20279 -19.96305,11.01111 -3.076866,1.81454 -5.365369,3.11453 -8.344206,5.06311 -5.120479,3.34951 -9.931014,7.16356 -14.145139,11.61327 -0.945364,1.07118 -1.924941,2.11311 -2.836095,3.21354 -3.209276,3.87595 -6.109268,8.17846 -7.830645,12.93881 -0.398484,1.10198 -0.663525,2.24774 -0.995288,3.37161 -0.384403,2.54356 -0.785207,3.98312 -0.46826,6.55692 0.275947,2.24086 0.95445,3.97636 2.270585,5.81624 1.635231,2.28596 3.189089,3.33451 5.343631,5.13472 1.193969,0.78864 2.34895,1.63974 3.581908,2.36591 5.171533,3.04587 10.953501,5.16596 16.894656,6.05171 1.389883,0.20722 2.797316,0.2718 4.195972,0.4077 3.339436,-0.0116 4.632179,0.10878 7.92067,-0.3878 3.185027,-0.48096 6.820371,-1.54229 9.683881,-3.04996 1.78006,-0.93722 3.48929,-2.00319 5.23393,-3.00479 0.69796,-0.48134 1.41175,-0.94049 2.09386,-1.44403 1.76313,-1.30156 3.45026,-2.79041 4.75265,-4.56296 0,0 -3.59566,1.59365 -3.59566,1.59365 z" />
    <path
       style="fill:#ff0000;fill-opacity:1;stroke:#ff0000;stroke-width:2.402;stroke-linejoin:round;stroke-miterlimit:4;stroke-dasharray:none;stroke-opacity:1"
       id="path13596"
       d="m 92.471347,148.63481 c -0.134977,-0.0167 1.321837,-0.84131 0.984965,-0.6413 -0.754629,0.44805 -1.567974,0.80867 -2.265908,1.34074 -0.411625,0.3138 0.925058,-0.46532 1.396847,-0.67821 1.535176,-0.69272 2.415717,-1.00102 4.034758,-1.62273 5.335011,-2.00268 10.840471,-3.54175 16.450401,-4.54954 1.32039,-0.2372 2.65018,-0.41871 3.97527,-0.62807 5.16875,-0.73414 10.41459,-0.87323 15.60717,-0.30235 3.08447,0.3391 3.80538,0.56666 6.78728,1.19833 4.37097,1.15056 8.84505,2.71334 12.36928,5.6529 0.61254,0.51092 1.15053,1.1051 1.72579,1.65766 0.47089,0.62873 0.99494,1.22095 1.41266,1.8862 1.27979,2.03818 2.01665,4.36959 2.10533,6.77776 0.0801,2.17545 -0.22286,3.0025 -0.65436,5.14373 -0.31497,0.90202 -0.57422,1.82547 -0.94492,2.70604 -1.76014,4.18113 -4.6207,7.8952 -7.71617,11.16912 -0.96593,1.0216 -1.9978,1.97878 -2.9967,2.96817 -3.71024,3.39344 -7.74995,6.39702 -12.08226,8.95138 -1.04191,0.61431 -2.13816,1.13221 -3.22404,1.66494 -6.92543,3.3976 -6.35271,3.03986 -13.67792,6.19502 -11.45082,4.669 -23.06295,8.96283 -34.847192,12.717 -1.487671,0.47393 -2.983826,0.92081 -4.475737,1.38121 -1.143841,0.33965 -2.28768,0.67931 -3.431519,1.01896 0,0 -2.544432,1.96786 -2.544432,1.96786 v 0 c 1.206662,-0.38719 2.413326,-0.77437 3.61999,-1.16156 13.426699,-4.40204 26.73992,-9.16075 39.83736,-14.46846 2.36867,-1.00284 4.75591,-1.96292 7.10602,-3.00853 6.58835,-2.93131 13.06099,-6.24935 19.00034,-10.36144 3.35217,-2.32086 4.54539,-3.4749 7.58025,-6.07938 1.02113,-1.00652 2.07628,-1.97968 3.06341,-3.01958 3.16146,-3.33045 6.07315,-7.10283 7.85466,-11.36973 0.37573,-0.89991 0.63915,-1.84271 0.95872,-2.76407 0.44598,-2.22285 0.74853,-3.01283 0.65304,-5.26939 -0.10428,-2.4641 -0.86825,-4.85656 -2.17934,-6.94193 -0.42824,-0.68114 -0.96531,-1.28746 -1.44797,-1.93119 -0.5875,-0.5638 -1.13708,-1.16998 -1.7625,-1.69141 -2.75275,-2.29505 -6.17192,-3.78261 -9.56466,-4.84235 -1.00197,-0.31297 -2.02599,-0.55042 -3.03899,-0.82563 -3.00904,-0.61919 -3.77367,-0.84917 -6.88018,-1.18395 -5.22127,-0.5627 -10.49574,-0.44232 -15.69543,0.27601 -1.32275,0.20217 -2.64973,0.37843 -3.96826,0.60652 -5.51981,0.95487 -10.94993,2.39502 -16.217174,4.30135 -1.5285,0.55838 -2.453997,0.87176 -3.913925,1.49028 -0.453223,0.19201 -0.911051,0.37743 -1.344311,0.61102 -1.431515,0.7718 -2.836735,1.59155 -4.246118,2.40306 -0.535231,0.30818 -0.631325,0.39978 -1.071147,0.7359 0,0 3.667622,-1.48036 3.667622,-1.48036 z" />
  </g>
  <g
     inkscape:label="Capa 1"
     inkscape:groupmode="layer"
     id="layer1">
    <path
       id="path8241"
       style="fill:none;fill-rule:evenodd;stroke:#ffffff;stroke-width:7.55905522;stroke-linejoin:round;stroke-miterlimit:4;stroke-dasharray:none;stroke-opacity:1"
       inkscape:transform-center-x="0.00012191457"
       inkscape:transform-center-y="-17.967445"
       transform="scale(0.26458333)"
       d="m 389.04688,331.50195 -235.2461,407.45117 470.48828,0.002 z" />
  </g>
  <g
     inkscape:groupmode="layer"
     id="layer4"
     inkscape:label="Edits" />
</svg>
